<?xml version="1.0" standalone="no"?><!DOCTYPE svg PUBLIC "-//W3C//DTD SVG 1.1//EN" "http://www.w3.org/Graphics/SVG/1.1/DTD/svg11.dtd"><svg t="1634986063560" class="icon" viewBox="0 0 1024 1024" version="1.1" xmlns="http://www.w3.org/2000/svg" p-id="3046" xmlns:xlink="http://www.w3.org/1999/xlink" width="200" height="200"><defs><style type="text/css"></style></defs><path d="M512.003523 512m-313.807133 0a313.807134 313.807134 0 1 0 627.614267 0 313.807134 313.807134 0 1 0-627.614267 0Z" fill="#F9BA48" p-id="3047"></path><path d="M512.003523 0C377.774982 0 248.968998 53.098071 153.586259 146.546448l-21.736032-116.555023-32.471919 6.077915 29.878675 160.072891 166.217751 18.46629 3.650272-32.817215-120.568208-13.396076c89.02295-86.331051 208.731442-135.366609 333.443202-135.366609 264.091554 0 478.964332 214.858684 478.964332 478.967856 0 144.136423-64.080598 273.506156-165.160722 361.387515v-31.066071a36.728221 36.728221 0 0 1-33.032144-20.414746l-6.789647-13.575771c22.676787-4.5417 39.821792-24.593533 39.821791-48.591606 0-27.317143-22.229312-49.549978-49.546455-49.549978h-66.064289v165.160722h33.032145v-78.681688l20.002505 40.001487c11.595604 23.222919 34.649398 37.771156 60.483177 38.532217-83.850557 72.061165-192.742122 115.762251-311.70717 115.762251-264.091554 0-478.964332-214.858684-478.964332-478.967856 0-48.788918 7.416817-97.13036 22.063711-143.688947l-31.513547-9.911405a511.214275 511.214275 0 0 0-23.585832 153.607399c0 282.307681 229.671179 512 511.996477 512s511.996477-229.688796 511.996477-512S794.325298 0 512.003523 0z m231.221488 776.257155v-33.032144h33.032144c9.11511 0 16.51431 7.416817 16.514311 16.517834s-7.3992 16.517834-16.514311 16.517834h-33.032144v-0.003524z" fill="#333333" p-id="3048"></path><path d="M88.448632 288.487775l-29.198654-15.443188c-6.440828 12.155829-11.859861 23.335669-16.581256 34.120883l30.255683 13.244569a497.687832 497.687832 0 0 1 15.524227-31.922264zM387.834371 557.31834l-200.43729 120.268717c-23.899417 14.336832-38.747146 40.547618-38.747146 68.424986 0 44.000578 35.790989 79.788044 79.788044 79.788044h283.565544V792.771466h-283.565544c-25.780928 0-46.755899-20.974971-46.7559-46.7559a46.932071 46.932071 0 0 1 22.708499-40.086048l200.454907-120.286334c66.096-39.65619 107.154515-112.175401 107.154515-189.257451 0-100.171079-81.507477-181.678556-181.675033-181.678556S148.649935 296.214654 148.649935 396.385733v33.032144h33.032144V396.385733c0-81.951429 66.673842-148.646412 148.642888-148.646412s148.642888 66.691459 148.642889 148.646412c0.003523 65.553392-34.913655 127.223965-91.133485 160.932607zM741.146188 222.737071l-28.870975-16.052741-160.220875 288.385595a56.142313 56.142313 0 0 0-7.01867 27.119831c0 30.801814 25.072719 55.874533 55.874533 55.874533h158.836167v99.096433h33.028621v-99.096433h148.642888v-33.032145h-148.642888v-330.321444h-33.032144v330.321444h-158.836168a22.856482 22.856482 0 0 1-22.842388-22.842388c0-3.865201 1.007701-7.695168 2.875118-11.081183l160.206781-288.371502zM545.032144 875.353588h33.032145v-66.064288h66.064289v66.064288h33.032144v-165.160722h-33.032144v66.064289h-66.064289v-66.064289h-33.032145z" fill="#333333" p-id="3049"></path></svg>