<?xml version="1.0" standalone="no"?><!DOCTYPE svg PUBLIC "-//W3C//DTD SVG 1.1//EN" "http://www.w3.org/Graphics/SVG/1.1/DTD/svg11.dtd"><svg class="icon" width="200px" height="200.00px" viewBox="0 0 1024 1024" version="1.1" xmlns="http://www.w3.org/2000/svg"><path fill="#26a2ff" d="M511.645936 372.683001c-76.015278 0-137.859811 61.844533-137.859811 137.859811s61.844533 137.859811 137.859811 137.859811c76.017324 0 137.859811-61.844533 137.859811-137.859811S587.66326 372.683001 511.645936 372.683001zM829.950446 164.731832c-4.786003 0.344854-46.524616 0.931209-118.744451 0.931209-42.869367 0-109.007693-0.329505-180.641173-1.898233l-0.883113-0.021489c-5.008061-1.77646-16.172331-9.387811-22.991644-14.039761-17.191544-11.724019-32.038694-21.847587-48.542576-21.847587L314.542836 127.85597c-18.715247 0-36.266995 11.907191-53.243645 23.422456-6.03546 4.094248-15.902178 10.786671-20.278859 12.478196l-50.677193 0c-55.82647 0-101.244892 45.441958-101.244892 101.30015L89.098247 728.750579c0 55.855122 45.342698 101.30015 101.078093 101.30015l222.251873 0 99.56974 79.655178 99.571786-79.655178 222.251873 0c55.735395 0 101.078093-45.444005 101.078093-101.30015L934.899706 547.887348l0-16.126282L934.899706 265.058818C934.899706 209.450313 885.552811 164.731832 829.950446 164.731832zM511.645936 702.529381c-105.86205 0-191.985546-86.123496-191.985546-191.985546s86.123496-191.987592 191.985546-191.987592 191.987592 86.125543 191.987592 191.987592S617.507986 702.529381 511.645936 702.529381zM780.792862 360.990704c-26.907836 0-48.722678-21.814842-48.722678-48.722678 0-26.909883 21.814842-48.722678 48.722678-48.722678 26.909883 0 48.722678 21.812795 48.722678 48.722678C829.51554 339.174839 807.702746 360.990704 780.792862 360.990704z" /></svg>