<?xml version="1.0" standalone="no"?><!DOCTYPE svg PUBLIC "-//W3C//DTD SVG 1.1//EN" "http://www.w3.org/Graphics/SVG/1.1/DTD/svg11.dtd"><svg class="icon" width="200px" height="200.00px" viewBox="0 0 1024 1024" version="1.1" xmlns="http://www.w3.org/2000/svg"><path fill="#26a2ff" d="M829.950446 164.731832c-4.786003 0.344854-46.524616 0.931209-118.744451 0.931209-42.869367 0-109.007693-0.329505-180.641173-1.898233l-0.883113-0.021489c-5.008061-1.77646-16.172331-9.387811-22.991644-14.039761-17.191544-11.724019-32.038694-21.847587-48.542576-21.847587L314.542836 127.85597c-18.715247 0-36.266995 11.907191-53.243645 23.422456-6.03546 4.094248-15.902178 10.786671-20.278859 12.478196l-50.677193 0c-55.82647 0-101.243869 45.441958-101.243869 101.30015L89.099271 728.750579c0 55.855122 45.342698 101.30015 101.078093 101.30015l222.251873 0 99.56974 79.655178 99.571786-79.655178 222.251873 0c55.735395 0 101.078093-45.444005 101.078093-101.30015L934.900729 547.887348l0-16.126282L934.900729 265.058818C934.899706 209.450313 885.552811 164.731832 829.950446 164.731832zM833.822636 774.08202 591.93761 774.08202l-79.938634 63.950498-79.93761-63.950498L190.175317 774.08202c-24.87248 0-45.109384-20.336164-45.109384-45.333488L145.065933 265.058818c0-24.997324 20.310581-45.333488 45.276183-45.333488l52.395324 0c17.356296 0 33.203216-10.750855 49.979298-22.128997 6.850012-4.64581 18.153452-12.31549 22.918989-13.771655l140.222625 0c4.26514 1.868557 13.211906 7.970532 19.297508 12.120039 17.191544 11.724019 34.968419 23.846104 53.431933 23.846104 0.656963 0 1.313925-0.01535 1.967818-0.044002 71.671343 1.555425 137.743154 1.882883 180.64936 1.882883 32.329313 0 63.889099-0.186242 88.86698-0.520863 10.450003-0.14224 19.253506-0.304945 25.456788-0.469698 3.130294-0.082888 5.499248-0.162706 7.238868-0.24764 1.24127-0.059352 2.183735-0.124843 2.816139-0.180102 0.024559-0.002047 0.050142-0.004093 0.050142-0.004093 24.029276 0.839111 43.298132 20.637016 43.298132 44.850487l0 282.82853 0.002047 0 0 0.984421c0 0.024559-0.002047 0.052189-0.002047 0.052189 0 0.028653 0.002047 0.030699 0.002047 0.030699L878.934067 728.750579C878.933043 753.745856 858.695117 774.08202 833.822636 774.08202zM319.66039 510.543835c0 105.86205 86.123496 191.985546 191.985546 191.985546s191.987592-86.123496 191.987592-191.985546S617.507986 318.556243 511.645936 318.556243 319.66039 404.681786 319.66039 510.543835zM649.50677 510.543835c0 76.015278-61.842487 137.859811-137.859811 137.859811-76.015278 0-137.859811-61.844533-137.859811-137.859811s61.844533-137.859811 137.859811-137.859811C587.66326 372.683001 649.50677 434.528558 649.50677 510.543835zM780.792862 312.268026m-48.722678 0a47.613 47.613 0 1 0 97.445356 0 47.613 47.613 0 1 0-97.445356 0Z" /></svg>