<?xml version="1.0" standalone="no"?><!DOCTYPE svg PUBLIC "-//W3C//DTD SVG 1.1//EN" "http://www.w3.org/Graphics/SVG/1.1/DTD/svg11.dtd"><svg t="1634985962570" class="icon" viewBox="0 0 1024 1024" version="1.1" xmlns="http://www.w3.org/2000/svg" p-id="2151" xmlns:xlink="http://www.w3.org/1999/xlink" width="200" height="200"><defs><style type="text/css"></style></defs><path d="M99.096774 313.808213V0h924.903226v594.580645h-792.774194z" fill="#F9BA48" p-id="2152"></path><path d="M957.935484 495.483871H209.327622l-21.28863-49.550149h158.801479V280.775955h-132.129032V181.679181h99.096774v66.064516h33.032258V148.646923H181.679181v165.16129h132.129032v99.096775H214.711439v-66.064517h-33.032258v84.266612L126.776926 303.287219c-14.350975-33.444501-53.246238-49.004015-86.792919-34.649517-33.426883 14.382686-48.968781 53.30966-34.614283 86.771778L133.186065 652.999295c0.017617 2.39594 0.461571 4.6897 0.711735 7.018694l-74.866072 174.329283C24.311742 849.772896 0 884.52107 0 924.903226c0 54.652091 44.444683 99.096774 99.096774 99.096774S198.193548 979.555317 198.193548 924.903226c0-17.888509-4.837684-34.635424-13.163575-49.134383l21.915802-51.019424 21.915803 51.019424c-8.322367 14.502483-13.163575 31.249397-13.163575 49.134383 0 54.652091 44.444683 99.096774 99.096774 99.096774s99.096774-44.444683 99.096774-99.096774c0-40.382156-24.311742-75.130329-59.028205-90.559477L280.804143 661.9136c0.412243-3.15348 0.958376-6.275248 0.958376-9.530908 0-0.510899-0.147985-0.990087-0.147985-1.518603l24.177851-56.286967H269.839195l-4.872919 11.331386c-4.094238-5.070231-8.738133-9.643658-14.005677-13.494779L223.530612 528.516129h734.404872v-33.032258zM35.724167 342.362178c-7.184296-16.729297 0.577844-36.185738 17.307141-43.387651 16.764532-7.216007 36.185738 0.595462 43.387651 17.324759l112.492896 261.911453c-0.496805-0.017617-0.958376-0.147985-1.455181-0.147985-23.684569 0-44.560957 11.34548-58.186102 28.638528L35.724167 342.362178zM99.096774 990.967742c-36.435902 0-66.064516-29.628614-66.064516-66.064516s29.628614-66.064516 66.064516-66.064516 66.064516 29.628614 66.064516 66.064516-29.628614 66.064516-66.064516 66.064516z m62.019606-143.227871c-16.993555-13.692091-38.549966-21.933419-62.019606-21.933419-0.147985 0-0.295969 0.017617-0.461571 0.017617l53.41184-124.384509c1.240251 1.402329 2.39594 2.875128 3.731324 4.1788l33.180243 77.244394-27.84223 64.877117z m219.764054 77.163355c0 36.435902-29.628614 66.064516-66.064517 66.064516s-66.064516-29.628614-66.064516-66.064516 29.628614-66.064516 66.064516-66.064516 66.064516 29.628614 66.064517 66.064516zM262.179234 702.249951l53.08416 123.574118c-0.147985 0-0.295969-0.017617-0.46157-0.017617-23.46964 0-45.040145 8.241328-62.019606 21.933419l-52.291386-121.724311c2.328994 0.21493 4.573426 0.694118 6.969366 0.694117 21.718489 0 41.125602-9.545001 54.719036-24.459726z m-13.427833-49.863735c0 22.775522-18.515682 41.291203-41.291203 41.291203s-41.291203-18.515682-41.291204-41.291203 18.515682-41.291203 41.291204-41.291204 41.291203 18.515682 41.291203 41.291204zM165.16129 66.064516h726.709678v33.032258H165.16129zM924.903226 66.064516h33.032258v33.032258H924.903226z" fill="#333333" p-id="2153"></path><path d="M545.030496 445.937246V148.646923h-165.16129v297.290323h33.032258v-132.129033h99.096774v132.129033h33.032258z m-132.125508-165.161291V181.679181h99.096774v99.096774h-99.096774zM578.062754 148.646923v297.290323h165.161291v-33.032258h-132.129033v-264.258065zM941.417593 181.679181v-33.032258h-165.16129v297.290323h165.16129v-33.032258h-132.129032V313.808213h132.129032v-33.032258h-132.129032V181.679181z" fill="#333333" p-id="2154"></path></svg>