<?xml version="1.0" standalone="no"?><!DOCTYPE svg PUBLIC "-//W3C//DTD SVG 1.1//EN" "http://www.w3.org/Graphics/SVG/1.1/DTD/svg11.dtd"><svg t="1634986120876" class="icon" viewBox="0 0 1024 1024" version="1.1" xmlns="http://www.w3.org/2000/svg" p-id="3494" xmlns:xlink="http://www.w3.org/1999/xlink" width="200" height="200"><defs><style type="text/css"></style></defs><path d="M0 99.096774h1024v115.614665H0z" fill="#F9BA48" p-id="3495"></path><path d="M974.449851 0h-924.903226C22.232912 0 0 22.229388 0 49.550149v561.548387c0 27.317237 22.232912 49.546625 49.550149 49.546625v363.354839h462.451613V660.645161h462.451613c27.317237 0 49.546625-22.229388 49.546625-49.550149V49.550149c0-27.32076-22.232912-49.550149-49.550149-49.550149zM478.969504 693.677419h-33.032258v33.032258h33.032258v198.193549h-33.032258v33.032258h33.032258v33.032258h-396.387097v-33.032258h33.032258V924.903226h-33.032258v-198.193549h33.032258v-33.032258h-33.032258V660.645161H478.962457v33.032258h0.007047z m-49.550149-66.064516h-49.546626v-66.064516c0-54.652091-44.444683-99.096774-99.096774-99.096774s-99.096774 44.444683-99.096774 99.096774v66.064516H132.129032v-66.064516c0-81.951711 66.674071-148.646923 148.6434-148.646923s148.6434 66.691689 148.643399 148.646923v66.064516h0.003524z m-82.578884 0h-132.129032v-66.064516c0-36.435902 29.628614-66.064516 66.064516-66.064516s66.064516 29.628614 66.064516 66.064516v66.064516z m644.127271-16.514367a16.524938 16.524938 0 0 1-16.514367 16.517891H462.451613v-66.064516c0-100.171424-81.507757-181.679181-181.675658-181.679182s-181.675658 81.507757-181.675657 181.679182v66.064516H49.550149a16.524938 16.524938 0 0 1-16.514367-16.517891V49.550149c0-9.101048 7.399226-16.517891 16.514367-16.517891h924.903226a16.531985 16.531985 0 0 1 16.514367 16.517891v561.548387z" fill="#333333" p-id="3496"></path><path d="M858.83871 396.387097c-21.588122 0-41.537844 7.018694-57.823188 18.794033-16.778625-12.138254-36.798816-18.794034-57.791477-18.794033-54.652091 0-99.096774 44.444683-99.096774 99.096774s44.444683 99.096774 99.096774 99.096774c20.992661 0 41.009328-6.65578 57.77386-18.794033 16.302961 11.775339 36.252683 18.794034 57.840805 18.794033 54.652091 0 99.096774-44.444683 99.096774-99.096774S913.490801 396.387097 858.83871 396.387097z m-181.679181 99.096774c0-36.435902 29.628614-66.064516 66.064516-66.064516 12.222816 0 23.913593 3.5023 34.156235 9.759931-11.098839 16.003468-17.638345 35.392963-17.638345 56.304585s6.539506 40.283499 17.638345 56.286968c-10.239119 6.261154-21.933419 9.777548-34.156235 9.777548-36.432378 0-66.064516-29.628614-66.064516-66.064516z m181.679181 66.064516c-36.435902 0-66.064516-29.628614-66.064516-66.064516s29.628614-66.064516 66.064516-66.064516 66.064516 29.628614 66.064516 66.064516-29.632138 66.064516-66.064516 66.064516zM280.775955 710.19531c-36.435902 0-66.064516 29.628614-66.064516 66.064516 0 15.95414 5.929951 31.397382 16.514367 43.436979v121.724312H330.322581v-121.724312c10.58794-12.039597 16.514367-27.482839 16.514367-43.436979 0.003523-36.435902-29.628614-66.064516-66.060993-66.064516z m21.965131 90.489008l-5.450763 4.922247v102.77877H264.258065v-102.77877l-5.450763-4.922247c-7.134968-6.423233-11.067128-15.112038-11.067128-24.428015 0-18.216189 14.816069-33.032258 33.032258-33.032258s33.032258 14.816069 33.032258 33.032258c0.003523 9.315978-3.928637 18.004783-11.063604 24.428015z" fill="#333333" p-id="3497"></path></svg>