<?xml version="1.0" standalone="no"?><!DOCTYPE svg PUBLIC "-//W3C//DTD SVG 1.1//EN" "http://www.w3.org/Graphics/SVG/1.1/DTD/svg11.dtd"><svg t="1634986029582" class="icon" viewBox="0 0 1024 1024" version="1.1" xmlns="http://www.w3.org/2000/svg" p-id="2746" xmlns:xlink="http://www.w3.org/1999/xlink" width="200" height="200"><defs><style type="text/css"></style></defs><path d="M165.16129 478.969504h33.032258v33.032258h-33.032258zM231.225806 478.969504H264.258065v33.032258h-33.032259zM726.709677 478.969504h33.032258v33.032258h-33.032258zM792.774194 478.969504h33.032258v33.032258H792.774194z" fill="#333333" p-id="2747"></path><path d="M0 0v578.066278h363.354839v-33.032258H33.032258V33.032258H990.967742v512.001762H660.645161v33.032258h363.354839V0z" fill="#333333" p-id="2748"></path><path d="M66.064516 512.001762H132.129032V66.064516H66.064516zM957.935484 66.064516h-66.064516v445.937246h66.064516zM165.16129 66.064516h33.032258v379.87273h-33.032258zM231.225806 66.064516H264.258065v379.87273h-33.032259zM297.290323 66.064516h33.032258V264.258065h-33.032258zM363.354839 66.064516h33.032258v132.129032h-33.032258zM429.419355 66.064516v99.096774h33.032258v-16.514367h33.032258V66.064516h-33.032258zM528.516129 66.064516h33.032258v82.582407H528.516129zM594.580645 66.064516h33.032258v99.096774h-33.032258zM660.645161 66.064516h33.032258v148.646923H660.645161zM726.709677 66.064516h33.032258v379.87273h-33.032258zM858.83871 66.064516H792.774194v379.87273h66.064516zM825.806452 478.969504h33.032258v33.032258h-33.032258zM561.548387 660.645161v-66.064516H462.451613v66.064516h-16.517891v297.290323c0 36.435902 29.628614 66.064516 66.064516 66.064516s66.064516-29.628614 66.064516-66.064516V660.645161h-16.514367z m-66.064516-33.032258H528.516129v33.032258h-33.032258v-33.032258z m49.546625 330.322581c0 18.216189-14.816069 33.032258-33.032258 33.032258s-33.032258-14.816069-33.032258-33.032258v-264.258065h66.064516v264.258065z" fill="#333333" p-id="2749"></path><path d="M512.001762 132.129032C375.394436 132.129032 264.258065 243.265404 264.258065 379.872729s111.136372 247.743697 247.740173 247.743698 247.740174-111.136372 247.740174-247.743698S648.605564 132.129032 512.001762 132.129032z m0 412.904988c-91.21836 0-165.16129-73.94293-165.161291-165.161291s73.94293-165.16129 165.161291-165.16129 165.16129 73.94293 165.16129 165.16129-73.94293 165.16129-165.16129 165.161291z" fill="#F9BA48" p-id="2750"></path><path d="M512.001762 561.548387c-100.171424 0-181.675658-81.507757-181.675658-181.679181s81.507757-181.679181 181.675658-181.679181 181.675658 81.507757 181.675657 181.679181-81.507757 181.679181-181.675657 181.679181z m0-330.322581c-81.969328 0-148.6434 66.691689-148.6434 148.646923S430.02891 528.516129 512.001762 528.516129s148.6434-66.691689 148.643399-148.646923-66.674071-148.6434-148.643399-148.6434z" fill="#333333" p-id="2751"></path></svg>