<?xml version="1.0" standalone="no"?><!DOCTYPE svg PUBLIC "-//W3C//DTD SVG 1.1//EN" "http://www.w3.org/Graphics/SVG/1.1/DTD/svg11.dtd"><svg t="1634986047316" class="icon" viewBox="0 0 1024 1024" version="1.1" xmlns="http://www.w3.org/2000/svg" p-id="2897" xmlns:xlink="http://www.w3.org/1999/xlink" width="200" height="200"><defs><style type="text/css"></style></defs><path d="M545.035668 478.967856h-5.912314C499.798366 509.900036 450.318857 528.51431 396.39278 528.51431s-103.405587-18.614274-142.730575-49.549978H82.58917v264.257155h627.610743v-264.257155h-165.164245v0.003524z" fill="#F9BA48" p-id="2898"></path><path d="M974.457069 809.2893h-16.517834v-181.678556h-67.628692l-16.517833-165.160722h-147.074963V313.807134h-83.424222c0.362913-5.482455 0.842099-10.933199 0.842099-16.517834 0-66.561092-26.524372-126.959708-69.383358-171.520511l11.577987-11.577987 29.614418 29.614418 23.353286-23.353285-82.578599-82.582123-23.353286 23.353286 29.614418 29.614418-12.666726 12.666727a246.234817 246.234817 0 0 0-137.396104-53.115689V33.032144h49.546455V0h-132.128577v33.032144h49.546455v17.359934a246.361661 246.361661 0 0 0-137.396104 53.115688l-12.666726-12.666726 29.614418-29.614419-23.353285-23.353286-82.58917 82.5786 23.353286 23.353285 29.614418-29.614418 11.577987 11.577987C175.17783 170.329592 148.653458 230.728207 148.653458 297.2893c0 5.581111 0.479186 11.031855 0.8421 16.517834H66.071336v495.482166h-16.514311c-27.317143 0-49.549978 22.229312-49.549978 49.546455s22.229312 49.549978 49.546455 49.549978H148.646412c0 63.735302 51.861348 115.614267 115.610743 115.614267s115.610744-51.875441 115.610744-115.614267h313.80361c0 63.735302 51.861348 115.614267 115.610744 115.614267s115.610744-51.875441 115.610743-115.614267H974.442975c27.317143 0 49.546455-22.229312 49.546455-49.549978s-22.215218-49.546455-49.532361-49.546455z m-130.560652-313.807134l13.212857 132.128578h-130.39505v-132.128578h117.182193zM396.39278 82.582123c118.387206 0 214.707177 96.319971 214.707177 214.7107s-96.319971 214.707177-214.707177 214.707177-214.707177-96.323495-214.707177-214.7107 96.319971-214.707177 214.707177-214.707177z m-330.321444 792.771465h-16.514311c-9.101016 0-16.51431-7.3992-16.51431-16.517833s7.416817-16.517834 16.51431-16.517834h16.514311v33.035667z m198.192866 115.610744c-45.53327 0-82.578599-37.04533-82.578599-82.582123s37.04533-82.578599 82.578599-82.578599 82.578599 37.04533 82.578599 82.582123-37.041806 82.578599-82.578599 82.578599z m110.741365-115.610744C360.749775 827.65341 316.520174 792.771466 264.264202 792.771466s-96.485573 34.881944-110.741365 82.582122H99.10348v-528.51431h54.53563c23.022083 112.936461 123.112123 198.192866 242.75367 198.192866s219.728063-85.256405 242.753669-198.192866h54.53563v528.517834h-318.676512v-0.003524z m434.287256 115.610744c-45.53327 0-82.578599-37.04533-82.578599-82.582123s37.04533-82.582123 82.578599-82.582122c45.53327 0 82.578599 37.04533 82.578599 82.582122s-37.041806 82.582123-82.578599 82.582123z m115.617791-115.610744h-4.872902C905.781919 827.65341 861.552318 792.771466 809.292823 792.771466c-32.338029 0-61.571917 13.378459-82.578599 34.864327V660.642888h198.192866v214.7107z m49.546455 0h-16.517834v-33.032144h16.517834c9.101016 0 16.51431 7.3992 16.51431 16.517834s-7.416817 16.51431-16.51431 16.51431z" fill="#333333" p-id="2899"></path><path d="M264.264202 858.835755c-27.317143 0-49.546455 22.229312-49.546455 49.549978 0 27.317143 22.229312 49.549978 49.546455 49.549978s49.546455-22.229312 49.546455-49.549978c0.003523-27.320666-22.229312-49.549978-49.546455-49.549978z m0 66.064288c-9.101016 0-16.51431-7.3992-16.51431-16.517834s7.416817-16.517834 16.51431-16.517833 16.51431 7.3992 16.514311 16.517833a16.531928 16.531928 0 0 1-16.514311 16.517834zM809.292823 858.835755c-27.317143 0-49.546455 22.229312-49.546455 49.549978 0 27.317143 22.229312 49.549978 49.546455 49.549978 27.317143 0 49.546455-22.229312 49.546455-49.549978 0.003523-27.320666-22.229312-49.549978-49.546455-49.549978z m0 66.064288c-9.101016 0-16.517834-7.3992-16.517834-16.517834s7.416817-16.517834 16.517834-16.517833c9.101016 0 16.51431 7.3992 16.514311 16.517833a16.531928 16.531928 0 0 1-16.514311 16.517834zM346.846325 297.2893c0 27.317143 22.229312 49.549978 49.546455 49.549978s49.546455-22.229312 49.546455-49.549978-22.229312-49.549978-49.546455-49.549979c-2.808173 0-5.517689 0.38053-8.209589 0.824483l-94.868319-110.670897-25.086813 21.503486 90.70715 105.819135c-7.434435 8.671158-12.088884 19.787576-12.088884 32.073772z m66.064289 0a16.546021 16.546021 0 0 1-16.514311 16.517834c-9.101016 0-16.51431-7.416817-16.51431-16.517834s7.416817-16.517834 16.51431-16.517834a16.546021 16.546021 0 0 1 16.514311 16.517834zM381.330122 478.224412l2.709517-32.915871c-76.419646-6.310461-136.289747-71.317721-136.289747-148.015718 0-36.301886 13.378459-71.317721 37.6725-98.634864l-24.674572-21.950961C231.06998 210.070345 214.717747 252.894098 214.717747 297.2893c0 93.761962 73.181615 173.236421 166.612375 180.935112z" fill="#333333" p-id="2900"></path></svg>