<?xml version="1.0" standalone="no"?><!DOCTYPE svg PUBLIC "-//W3C//DTD SVG 1.1//EN" "http://www.w3.org/Graphics/SVG/1.1/DTD/svg11.dtd"><svg t="1634985998404" class="icon" viewBox="0 0 1024 1024" version="1.1" xmlns="http://www.w3.org/2000/svg" p-id="2449" xmlns:xlink="http://www.w3.org/1999/xlink" width="200" height="200"><defs><style type="text/css"></style></defs><path d="M966.188377 231.221828H587.678684l124.826315-20.809083a105.585136 105.585136 0 0 0 88.524929-104.478795C801.029928 47.516306 753.513622 0 695.095978 0h-3.153426a106.159447 106.159447 0 0 0-78.38464 34.666538L487.230637 173.632178 360.899838 34.666538A106.134783 106.134783 0 0 0 282.515198 0h-3.153425c-58.417644 0-105.93395 47.516306-105.933951 105.93395a105.616846 105.616846 0 0 0 88.507312 104.496412l124.826315 20.809083H8.269373v181.676056h49.545773V1024h858.823935v-115.612676h-33.03169v82.580986h-330.316898V412.911977h22.824457l92.784696 185.555298c14.072381 28.158855 42.379218 45.648914 73.857096 45.648914h8.720366c45.532643 0 82.577463-37.04482 82.577463-82.580986s-37.04482-82.580986-82.577463-82.580986h-33.031689v33.031689h33.031689c27.316767 0 49.545773 22.229006 49.545773 49.549297s-22.229006 49.549296-49.545773 49.549296h-8.720366c-18.892365 0-35.871534-10.489103-44.313553-27.383711l-85.403214-170.806427h270.560369v280.771124h33.03169v-280.771124h49.545773V231.221828h0.01057zM454.198947 301.182067L472.66146 264.253518h29.134831l18.466036 36.928549v78.680604h-66.06338V301.182067z m-33.03169 78.684127h-6.310374l6.310374-12.617225v12.617225z m216.835867-322.97065a72.997392 72.997392 0 0 1 53.939428-23.863854h3.153426c40.198245 0 72.902261 32.700492 72.90226 72.90226a72.659147 72.659147 0 0 1-60.908674 71.908668l-195.28335 32.55251-4.724853-9.4638 130.921763-144.035784zM206.459512 105.93395c0-40.198245 32.700492-72.902261 72.902261-72.90226h3.153425a73.007962 73.007962 0 0 1 53.939428 23.863854l130.935857 144.035784-4.724853 9.4638-195.28335-32.55251a72.676764 72.676764 0 0 1-60.922768-71.908668z m-165.158449 273.932244V264.253518h379.862671v29.134831l-43.238922 86.477845H57.81867h-16.517607zM90.85036 990.950693V412.897884h270.560368l-85.403213 170.806427c-8.438496 16.894608-25.417665 27.383711-44.313554 27.383712h-8.720366c-27.316767 0-49.545773-22.229006-49.545773-49.549297s22.229006-49.549296 49.545773-49.549296h33.03169v-33.03169h-33.03169c-45.532643 0-82.577463 37.04482-82.577462 82.580986s37.04482 82.580986 82.577462 82.580986h8.720366c31.477879 0 59.788239-17.49006 73.857097-45.648914l92.784695-185.572914h22.824458V990.950693H90.85036z m429.411967 0h-66.06338V412.897884h66.06338V990.950693z m33.031689-611.084499v-12.617225l6.310374 12.617225h-6.310374z m379.862671 0H596.532939l-43.238923-86.477845V264.253518h379.862671v115.612676z" fill="#333333" p-id="2450"></path><path d="M926.501022 644.119712a89.229605 89.229605 0 0 0-69.681891 33.493253l-39.27512 49.08421-39.275119-49.08421a89.226081 89.226081 0 0 0-69.681891-33.493253c-49.281519 0-89.236651 39.951609-89.236652 89.236652a265.314056 265.314056 0 0 0 118.13894 220.750342l80.051199 53.361594 80.051199-53.361594a265.303486 265.303486 0 0 0 118.13894-220.750342c0.003523-49.285043-39.948085-89.236651-89.229605-89.236652z" fill="#F9BA48" p-id="2451"></path></svg>