<?xml version="1.0" standalone="no"?><!DOCTYPE svg PUBLIC "-//W3C//DTD SVG 1.1//EN" "http://www.w3.org/Graphics/SVG/1.1/DTD/svg11.dtd"><svg t="1634986080839" class="icon" viewBox="0 0 1024 1024" version="1.1" xmlns="http://www.w3.org/2000/svg" p-id="3195" xmlns:xlink="http://www.w3.org/1999/xlink" width="200" height="200"><defs><style type="text/css"></style></defs><path d="M726.709677 8.258945H0v264.258065h726.709677S792.774194 226.948349 792.774194 140.387978s-66.064516-132.129032-66.064517-132.129033z m-33.032258 165.161291c-18.251424 0-33.032258-14.780834-33.032258-33.032258s14.780834-33.032258 33.032258-33.032258 33.032258 14.780834 33.032258 33.032258-14.784358 33.032258-33.032258 33.032258z" fill="#F9BA48" p-id="3196"></path><path d="M693.677419 189.934603c27.317237 0 49.546625-22.229388 49.546626-49.550149s-22.229388-49.550149-49.546626-49.550149-49.546625 22.229388-49.546625 49.550149 22.229388 49.550149 49.546625 49.550149z m0-66.064516c9.101048 0 16.514367 7.416843 16.514368 16.517891s-7.416843 16.517891-16.514368 16.51789a16.546078 16.546078 0 0 1-16.51789-16.51789 16.546078 16.546078 0 0 1 16.51789-16.517891z" fill="#333333" p-id="3197"></path><path d="M908.385335 635.871849H791.717161l-6.606451-99.096775h32.436796c113.845898 0 206.452494-92.606596 206.452494-206.452493s-92.606596-206.452494-206.452494-206.452494H792.774194v33.032258h24.773312c95.629708 0 173.420236 77.790527 173.420236 173.420236s-77.790527 173.420236-173.420236 173.420235h-34.649517l-7.712812-115.614665H314.861722l-16.514367 247.743698H115.611142C51.861526 635.871849 0 687.729851 0 751.48299v181.679181h125.339362c19.653753 48.359226 67.07222 82.582407 122.400812 82.582407s102.747059-34.219658 122.400812-82.582407h283.714505c19.653753 48.359226 67.07222 82.582407 122.400812 82.582407s102.747059-34.219658 122.400812-82.582407h125.339362v-181.679181c0.003523-63.753139-51.858003-115.611142-115.611142-115.611141z m-660.645161 346.836948c-54.652091 0-99.096774-44.444683-99.096774-99.096775s44.444683-99.096774 99.096774-99.096774 99.096774 44.444683 99.096774 99.096774-44.444683 99.096774-99.096774 99.096775z m528.516129 0c-54.652091 0-99.096774-44.444683-99.096774-99.096775s44.444683-99.096774 99.096774-99.096774 99.096774 44.444683 99.096774 99.096774-44.444683 99.096774-99.096774 99.096775z m214.711439-82.578884h-83.720478c0.676501-5.419052 1.138071-10.91562 1.138071-16.517891 0-72.854187-59.274846-132.129032-132.129032-132.129032s-132.129032 59.274846-132.129032 132.129032c0 5.598748 0.461571 11.098839 1.138071 16.517891h-266.537731c0.676501-5.419052 1.138071-10.91562 1.138072-16.517891 0-72.854187-59.274846-132.129032-132.129033-132.129032s-132.129032 59.274846-132.129032 132.129032c0 5.598748 0.461571 11.098839 1.138071 16.517891H33.032258v-148.646923c0-45.533426 37.045457-82.582407 82.578884-82.582407H329.265548l16.514368-247.743697h398.515255l16.514367 247.743697h147.572274c45.533426 0 82.578883 37.045457 82.578883 82.582407v148.646923h0.007047z" fill="#333333" p-id="3198"></path><path d="M363.354839 668.904107H726.709677v-231.225807H363.354839v231.225807z m33.032258-198.193549h297.290322v165.161291H396.387097v-165.161291zM123.870087 239.481228h16.514367c31.876569 0 57.805571-25.929001 57.805571-57.80557S172.261024 123.870087 140.384454 123.870087h-16.514367c-13.66038 0-24.773313-11.116456-24.773313-24.773313s11.116456-24.773313 24.773313-24.773312h16.514367c13.66038 0 24.773313 11.116456 24.773313 24.773312v8.258946h33.032258v-8.258946c0-31.876569-25.929001-57.805571-57.805571-57.805571h-16.514367c-31.876569 0-57.805571 25.929001-57.805571 57.805571s25.929001 57.805571 57.805571 57.805571h16.514367c13.66038 0 24.773313 11.116456 24.773313 24.773313s-11.116456 24.773313-24.773313 24.773312h-16.514367c-13.66038 0-24.773313-11.116456-24.773313-24.773312v-8.258946H66.064516v8.258946c0 31.876569 25.929001 57.805571 57.805571 57.80557zM247.740174 173.420236h66.064516v66.064516h33.032258v-132.129032c0-36.435902-29.628614-66.064516-66.064516-66.064517s-66.064516 29.628614-66.064516 66.064517v132.129032h33.032258v-66.064516z m33.032258-99.096774c18.216189 0 33.032258 14.816069 33.032258 33.032258v33.032258h-66.064516v-33.032258c0-18.219713 14.816069-33.032258 33.032258-33.032258zM478.96598 206.452494h-66.064516V41.291203h-33.032258v198.190025h99.096774zM611.095012 206.452494h-66.064516V156.902345h66.064516v-33.032258h-66.064516V74.323462h66.064516v-33.032259h-99.096774v198.190025h99.096774z" fill="#333333" p-id="3199"></path></svg>